<?xml version="1.0" standalone="no"?>
<!DOCTYPE svg PUBLIC "-//W3C//DTD SVG 20010904//EN"
 "http://www.w3.org/TR/2001/REC-SVG-20010904/DTD/svg10.dtd">
<svg version="1.0" xmlns="http://www.w3.org/2000/svg"
 width="1648.000000pt" height="1648.000000pt" viewBox="0 0 1648.000000 1648.000000"
 preserveAspectRatio="xMidYMid meet">
<metadata>
Created by potrace 1.14, written by Peter Selinger 2001-2017
</metadata>
<g transform="translate(0.000000,1648.000000) scale(0.100000,-0.100000)"
fill="#000000" stroke="none">
<path d="M6622 16467 c7 -7 27 -22 43 -32 26 -16 60 -43 199 -155 83 -67 323
-301 414 -405 90 -102 225 -277 297 -386 77 -114 76 -113 137 -214 24 -38 46
-71 50 -73 5 -2 8 -10 8 -17 0 -7 15 -39 33 -72 17 -32 41 -76 52 -98 11 -22
25 -43 30 -47 6 -4 7 -8 3 -8 -4 0 8 -31 27 -69 19 -38 49 -106 68 -152 42
-104 50 -123 52 -129 5 -15 18 -47 25 -65 12 -28 87 -263 106 -332 30 -111 35
-128 39 -153 3 -14 8 -36 12 -50 14 -57 42 -189 48 -237 3 -21 10 -59 15 -86
6 -26 9 -51 9 -55 -1 -4 0 -9 1 -12 5 -14 18 -119 26 -220 3 -25 6 -63 9 -85
8 -73 17 -328 17 -455 0 -127 -16 -455 -22 -455 -1 0 -3 -18 -5 -40 -3 -43
-13 -133 -20 -175 -2 -14 -6 -43 -10 -65 -3 -23 -8 -52 -10 -65 -3 -14 -10
-54 -16 -89 -5 -36 -12 -68 -15 -72 -2 -4 -6 -20 -8 -36 -3 -30 -25 -129 -34
-153 -7 -19 -6 -17 -17 -65 -10 -47 -12 -54 -14 -57 -2 -2 -4 -13 -7 -26 -5
-26 -95 -302 -114 -347 -15 -35 -21 -51 -51 -130 -12 -33 -25 -62 -28 -65 -3
-3 -6 -9 -6 -15 -1 -14 -134 -294 -145 -305 -5 -5 -51 -90 -74 -137 -6 -13
-14 -23 -18 -23 -5 0 -8 -5 -8 -10 0 -13 -145 -243 -166 -264 -8 -8 -14 -17
-14 -21 0 -3 -5 -11 -10 -18 -6 -7 -41 -53 -78 -102 -37 -50 -77 -101 -89
-115 -12 -14 -45 -53 -73 -87 -28 -35 -57 -63 -63 -63 -5 0 -7 -3 -4 -6 7 -8
-249 -265 -332 -334 -29 -25 -61 -52 -70 -61 -9 -9 -59 -49 -111 -90 -52 -40
-101 -79 -108 -86 -7 -7 -20 -13 -27 -13 -8 0 -18 -6 -22 -13 -4 -7 -35 -30
-68 -52 -33 -22 -62 -42 -65 -45 -3 -3 -27 -19 -55 -35 -27 -17 -58 -34 -67
-40 -94 -56 -182 -105 -189 -105 -5 0 -9 -5 -9 -10 0 -6 -3 -9 -7 -8 -5 1 -49
-19 -100 -45 -118 -60 -339 -154 -473 -202 -122 -43 -360 -115 -360 -109 0 3
-8 0 -19 -5 -10 -6 -31 -13 -47 -16 -16 -2 -39 -7 -51 -10 -13 -3 -32 -7 -44
-10 -11 -2 -30 -7 -42 -11 -12 -4 -33 -8 -47 -10 -14 -1 -25 -3 -25 -4 0 -2
-17 -6 -65 -14 -19 -3 -46 -8 -60 -10 -14 -3 -42 -7 -62 -10 -21 -3 -53 -8
-70 -11 -93 -14 -178 -24 -253 -30 -27 -2 -50 -4 -50 -5 0 -1 -82 -7 -137 -9
l-28 -1 0 -210 0 -210 33 -1 c17 0 46 -2 62 -3 17 -2 66 -7 110 -10 100 -9
161 -15 200 -22 17 -4 46 -7 65 -8 19 -2 44 -6 55 -9 11 -3 42 -8 69 -12 27
-3 52 -8 55 -10 3 -1 22 -6 41 -9 31 -5 86 -16 160 -32 14 -3 66 -16 115 -29
50 -13 101 -27 115 -30 51 -13 276 -87 307 -101 17 -8 33 -14 36 -14 3 0 18
-5 34 -12 15 -6 31 -12 36 -13 4 -2 9 -4 12 -5 3 -1 8 -3 13 -4 4 -1 30 -12
57 -24 28 -12 52 -22 55 -22 10 2 355 -173 361 -182 3 -5 12 -10 20 -11 38 -6
467 -288 535 -352 6 -5 26 -21 44 -35 18 -14 42 -33 54 -43 11 -10 46 -40 76
-65 98 -84 430 -423 430 -439 0 -3 8 -13 18 -22 10 -9 37 -41 60 -71 61 -79
75 -97 92 -119 28 -36 130 -186 177 -262 27 -41 54 -84 60 -95 7 -10 21 -35
31 -54 10 -19 29 -53 42 -75 38 -67 140 -273 140 -285 0 -5 5 -10 12 -10 6 0
9 -3 6 -6 -4 -3 4 -29 16 -57 23 -53 38 -88 41 -97 2 -7 24 -62 32 -80 3 -8 7
-17 7 -20 1 -6 24 -65 36 -95 5 -11 14 -38 20 -60 6 -22 14 -47 17 -55 8 -19
7 -16 22 -70 6 -25 15 -52 18 -60 3 -8 7 -19 9 -25 1 -5 7 -30 13 -55 19 -72
19 -75 21 -75 1 0 3 -9 5 -20 2 -11 11 -51 20 -90 41 -184 79 -417 91 -560 3
-27 6 -68 8 -90 31 -346 19 -803 -30 -1135 -2 -19 -6 -48 -9 -65 -7 -52 -16
-109 -20 -125 -2 -8 -7 -30 -10 -47 -13 -79 -16 -97 -20 -103 -2 -4 -7 -22
-10 -41 -9 -51 -35 -161 -46 -189 -5 -14 -10 -34 -12 -45 -2 -11 -10 -40 -17
-65 -17 -57 -16 -53 -23 -70 -3 -8 -11 -33 -17 -55 -6 -22 -14 -47 -17 -55 -4
-8 -7 -17 -7 -20 -1 -3 -6 -18 -13 -35 -6 -16 -24 -64 -39 -105 -15 -41 -35
-93 -44 -115 -10 -22 -29 -65 -41 -95 -23 -52 -155 -315 -186 -370 -8 -14 -25
-43 -39 -65 -14 -22 -27 -48 -31 -57 -3 -10 -8 -18 -12 -18 -3 0 -12 -12 -19
-28 -10 -22 -162 -245 -189 -277 -4 -5 -24 -30 -43 -55 -19 -25 -42 -54 -51
-65 -225 -266 -416 -453 -629 -615 -47 -36 -87 -68 -90 -71 -3 -3 -16 -13 -30
-22 -23 -16 102 -17 2108 -17 l2132 0 37 33 c21 19 51 45 67 58 50 41 258 251
321 323 33 38 65 74 70 80 14 15 94 120 139 181 20 28 40 55 44 60 49 64 172
261 172 276 0 5 3 9 8 9 4 0 13 15 21 33 8 17 20 39 27 47 7 8 14 22 16 30 2
8 6 17 9 20 7 6 112 221 115 235 1 6 13 35 26 65 34 74 95 238 104 275 4 17
10 35 14 40 4 6 10 21 12 35 3 14 24 93 47 175 23 83 44 158 46 167 2 9 15 63
30 121 14 57 28 117 31 133 2 16 11 63 19 104 14 72 21 110 29 175 3 17 7 46
10 65 8 52 15 116 21 195 3 39 8 95 11 125 6 78 10 500 4 500 -3 0 -5 26 -6
58 -1 31 -4 93 -8 136 -9 101 -12 123 -33 276 -6 46 -11 75 -13 75 -1 0 -3 15
-6 34 -2 19 -7 46 -10 60 -3 14 -7 40 -10 56 -8 47 -63 272 -86 350 -11 39
-21 75 -23 80 -1 6 -5 18 -9 27 -4 9 -9 22 -10 30 -15 63 -20 79 -27 84 -5 3
-9 13 -9 22 0 9 -15 55 -33 102 -40 101 -48 124 -48 127 0 2 -13 33 -76 173
-25 56 -149 301 -177 350 -14 25 -29 52 -33 60 -19 41 -198 329 -220 355 -5 6
-27 37 -50 70 -38 57 -233 305 -274 350 -170 185 -235 250 -438 435 -9 8 -41
35 -71 60 -30 25 -60 49 -67 55 -26 21 -41 33 -118 90 -44 33 -81 63 -83 67
-2 5 -8 8 -12 8 -8 0 -104 63 -135 88 -5 4 -28 19 -50 32 -22 13 -41 28 -43
32 -2 4 -8 8 -13 8 -5 0 -38 18 -73 40 -35 22 -67 40 -71 40 -5 0 -16 6 -24
14 -9 7 -41 26 -71 42 -30 15 -66 36 -80 45 -14 9 -27 17 -30 17 -3 0 -63 28
-135 62 -194 93 -222 105 -360 160 -81 32 -262 100 -280 104 -5 2 -18 6 -27 9
-10 4 -26 10 -35 14 -10 3 -22 7 -28 8 -5 2 -57 17 -115 36 -58 18 -112 33
-120 34 -8 1 -22 5 -30 8 -16 7 -120 35 -157 43 -12 2 -34 9 -48 14 -14 5 -25
7 -25 5 0 -2 -10 -1 -23 4 -13 5 -41 12 -63 16 -44 7 -53 10 -74 18 -8 3 -28
8 -45 10 -16 3 -40 7 -51 10 -12 3 -37 8 -55 11 -19 3 -45 8 -59 11 -14 3 -52
10 -85 16 -33 5 -71 12 -85 15 -14 3 -45 7 -70 10 -25 3 -52 8 -60 11 -8 3
-37 7 -65 9 -27 3 -61 7 -75 9 -40 8 -81 14 -140 20 -30 3 -68 7 -85 9 -40 5
-161 18 -205 21 -19 1 -78 6 -130 10 -109 8 -189 13 -277 16 -35 1 -63 5 -63
9 0 4 28 8 63 10 96 4 186 9 247 14 111 8 226 18 250 21 14 2 57 7 95 10 39 3
81 8 95 10 14 2 48 7 75 9 28 3 61 8 75 10 14 3 48 7 75 10 28 3 64 8 80 12
17 3 41 7 55 8 14 2 36 6 50 9 14 4 41 9 60 12 81 11 350 64 370 72 8 3 22 7
30 8 8 1 47 10 85 19 39 10 77 19 85 21 105 26 264 72 430 125 114 37 310 110
440 165 74 31 139 57 145 58 5 1 14 5 20 9 5 4 93 49 195 100 102 51 187 95
190 98 3 4 25 16 50 29 25 12 80 44 123 72 43 27 82 49 87 49 5 0 10 4 12 8 2
5 30 26 63 47 60 39 189 130 212 150 23 19 38 31 78 60 61 44 172 138 253 213
198 185 388 389 510 547 27 37 117 158 155 211 39 54 156 235 168 259 5 11 18
34 29 50 11 17 28 46 38 65 43 83 96 176 105 188 5 6 6 12 1 12 -5 0 -4 4 1 8
10 7 115 216 119 237 2 9 24 59 56 130 5 11 18 43 28 70 10 28 22 59 27 70 4
11 9 25 11 30 1 6 19 57 39 115 19 58 37 112 39 121 3 9 14 47 25 85 21 71 75
295 85 349 3 17 7 39 9 50 8 38 18 95 23 133 2 20 6 44 9 52 2 8 7 44 10 80 3
36 8 72 11 80 4 17 15 165 18 247 0 29 3 53 6 53 3 0 5 92 5 205 0 113 -2 205
-5 205 -3 0 -5 26 -6 58 -1 62 -10 183 -21 277 -3 33 -7 72 -7 88 -1 15 -5 27
-9 27 -5 0 -6 3 -4 8 3 4 -4 57 -15 117 -10 61 -21 124 -24 140 -3 17 -12 57
-20 90 -8 33 -17 71 -20 85 -3 14 -7 33 -10 42 -3 9 -7 25 -9 35 -2 10 -14 52
-25 93 -12 41 -23 84 -25 95 -7 35 -13 60 -15 63 -2 1 -3 5 -4 10 -2 4 -8 27
-15 52 -7 25 -15 52 -16 60 -2 8 -4 16 -5 18 -2 1 -4 7 -5 12 -1 6 -3 11 -5
13 -1 1 -3 9 -5 17 -5 28 -87 244 -127 338 -65 152 -210 429 -232 444 -7 5 -7
8 -1 8 6 0 2 7 -8 14 -10 8 -19 18 -19 23 -1 7 -17 35 -72 120 -12 18 -24 33
-28 33 -5 0 -8 5 -8 11 0 10 -125 183 -166 229 -23 26 -96 111 -123 144 -52
62 -277 280 -364 354 l-39 32 -2130 0 c-1761 0 -2127 -2 -2116 -13z m78 -8225
c0 -5 -7 -9 -15 -9 -8 0 -12 4 -9 9 3 4 9 8 15 8 5 0 9 -4 9 -8z"/>
</g>
</svg>
