<svg xmlns="http://www.w3.org/2000/svg" width="16" height="35" viewBox="0 0 16 35"><g fill="none"><path fill="#697473" d="M6.9 4.1C9.7 4.1 11.6 2.6 11.6.5 11.6.3 11.6.2 11.6 0 10.5.4 9.4.7 8.2.7 5.9.9 4.6 1.1 4.6 2.4 4.6 3.4 5.5 4.1 6.9 4.1M14.2 6.3C12.6 5.3 10.6 4.8 8.7 4.9 3.7 4.9 1.1 6.6 1.1 9.7L1.1 9.8 5.4 9.8C5.4 8.2 6.4 7.6 8.4 7.6 10.4 7.6 11.5 8.1 11.5 9.1 11.5 10.6 9.7 10.5 6.3 10.7 2.1 11 0 11.9 0 14.7 0 15.1.1 15.5.2 15.8L5.3 15.8C4.9 15.5 4.7 15.1 4.7 14.6 4.7 13.3 5.9 13.2 8.2 12.9 9.3 12.9 10.5 12.6 11.5 12.2 11.5 12.4 11.5 12.5 11.5 12.7 11.5 14.1 10.6 15.3 9.3 15.8L15.5 15.8 15.5 10.1C15.5 8.3 15.4 7.1 14.2 6.3" transform="translate(0 19)"/><path fill="#FF6C2D" d="M6.9 4.1C9.7 4.1 11.6 2.6 11.6.5 11.6.3 11.6.2 11.6-4.4408921e-16 10.5.4 9.4.7 8.2.7 5.8.9 4.6 1.1 4.6 2.4 4.6 3.4 5.5 4.1 6.9 4.1M14.2 6.2C12.6 5.2 10.6 4.7 8.7 4.8 3.7 4.8 1.1 6.5 1.1 9.6L1.1 9.7 5.4 9.7C5.4 8.1 6.4 7.5 8.4 7.5 10.4 7.5 11.5 8 11.5 9 11.5 10.4 9.7 10.4 6.3 10.6 2.1 11 0 11.9 0 14.7 0 15.1.1 15.5.2 15.8L5.3 15.8C4.9 15.5 4.7 15.1 4.7 14.6 4.7 13.3 5.9 13.2 8.2 12.9 9.3 12.9 10.5 12.6 11.5 12.2 11.5 12.4 11.5 12.5 11.5 12.7 11.5 14.1 10.6 15.3 9.3 15.8L15.5 15.8 15.5 10.1C15.5 8.3 15.4 7.1 14.2 6.2"/></g></svg>